<?xml version="1.0" encoding="utf-8"?>
<!-- Generator: Adobe Illustrator 23.0.1, SVG Export Plug-In . SVG Version: 6.00 Build 0)  -->
<svg version="1.1" id="Layer_1" xmlns="http://www.w3.org/2000/svg" xmlns:xlink="http://www.w3.org/1999/xlink" x="0px" y="0px"
	 viewBox="0 0 4167 4167" style="enable-background:new 0 0 4167 4167;" xml:space="preserve">
<style type="text/css">
	.st0{fill:#FFFFFF;}
	.st1{fill:#333333;}
</style>
<rect class="st0" width="4167" height="4167"/>
<g>
	<path class="st1" d="M2237,1481.5c55.3,0,100.1-44.8,100.1-100.1v-350.6h-225.3v350.6c0,55.3,44.8,100.1,100.1,100.1H2237z"/>
	<path class="st1" d="M1163.8,3136h1839c73.2,0,132.5-59.3,132.5-132.5V1415.4L2744.4,1032h-74v580H1496.2v-580h-332.4
		c-73.2,0-132.5,59.3-132.5,132.5v1839C1031.3,3076.7,1090.6,3136,1163.8,3136z M1278,2031.8c0-41.9,34-76,76-76h1458.7
		c41.9,0,76,34,76,76v891.8c0,42-34,76-76,76H1353.9c-41.9,0-76-34-76-76V2031.8z"/>
	<path class="st1" d="M1568.6,2285.6h1029.5c38,0,68.8-30.8,68.8-68.8c0-38-30.8-68.8-68.8-68.8H1568.6c-38,0-68.8,30.8-68.8,68.8
		C1499.8,2254.8,1530.6,2285.6,1568.6,2285.6z"/>
	<path class="st1" d="M1568.6,2546.5h1029.5c38,0,68.8-30.8,68.8-68.8c0-38-30.8-68.8-68.8-68.8H1568.6c-38,0-68.8,30.8-68.8,68.8
		C1499.8,2515.7,1530.6,2546.5,1568.6,2546.5z"/>
	<path class="st1" d="M1568.6,2807.5h1029.5c38,0,68.8-30.8,68.8-68.8l0,0c0-38-30.8-68.8-68.8-68.8H1568.6
		c-38,0-68.8,30.8-68.8,68.8l0,0C1499.8,2776.7,1530.6,2807.5,1568.6,2807.5z"/>
</g>
</svg>
